<?xml version="1.0" encoding="UTF-8" standalone="no"?>
<!-- Created with Inkscape (http://www.inkscape.org/) -->

<svg
   xmlns:dc="http://purl.org/dc/elements/1.1/"
   xmlns:cc="http://creativecommons.org/ns#"
   xmlns:rdf="http://www.w3.org/1999/02/22-rdf-syntax-ns#"
   xmlns:svg="http://www.w3.org/2000/svg"
   xmlns="http://www.w3.org/2000/svg"
   xmlns:sodipodi="http://sodipodi.sourceforge.net/DTD/sodipodi-0.dtd"
   xmlns:inkscape="http://www.inkscape.org/namespaces/inkscape"
   width="33.866665mm"
   height="33.866547mm"
   viewBox="0 0 119.99999 119.99957"
   id="svg5268"
   version="1.1"
   inkscape:version="0.91 r13725"
   sodipodi:docname="Qiixblog05.svg"
   inkscape:export-filename="/home/nzonbi/projects/Qiix/Qiix03.png"
   inkscape:export-xdpi="90"
   inkscape:export-ydpi="90">
  <defs
     id="defs5270" />
  <sodipodi:namedview
     id="base"
     pagecolor="#ffffff"
     bordercolor="#666666"
     borderopacity="1.0"
     inkscape:pageopacity="0.0"
     inkscape:pageshadow="2"
     inkscape:zoom="0.49497475"
     inkscape:cx="77.214368"
     inkscape:cy="289.00993"
     inkscape:document-units="px"
     inkscape:current-layer="layer1"
     showgrid="false"
     inkscape:window-width="1855"
     inkscape:window-height="1056"
     inkscape:window-x="65"
     inkscape:window-y="24"
     inkscape:window-maximized="1"
     fit-margin-top="0"
     fit-margin-left="0"
     fit-margin-right="0"
     fit-margin-bottom="0"
     inkscape:snap-page="true"
     inkscape:snap-bbox="true"
     inkscape:bbox-nodes="true" />
  <metadata
     id="metadata5273">
    <rdf:RDF>
      <cc:Work
         rdf:about="">
        <dc:format>image/svg+xml</dc:format>
        <dc:type
           rdf:resource="http://purl.org/dc/dcmitype/StillImage" />
        <dc:title></dc:title>
      </cc:Work>
    </rdf:RDF>
  </metadata>
  <g
     inkscape:label="Layer 1"
     inkscape:groupmode="layer"
     id="layer1"
     transform="translate(-135.71429,-116.64814)">
    <rect
       y="116.64814"
       x="135.71429"
       height="120"
       width="120"
       id="rect4497-9-6-6-6-4"
       style="display:inline;opacity:1;fill:#193a57;fill-opacity:1;stroke:none;stroke-width:25.03499985;stroke-miterlimit:4;stroke-dasharray:none;stroke-opacity:1" />
    <rect
       y="130.30945"
       x="149.2326"
       height="75.706825"
       width="92.963425"
       id="rect3031-4-4-0-7-64-2-1-9-3-8-3-64-4-6-4-37-2-5-9-0-7-9-3-5-53-6-0-1-9-5-7-5"
       style="color:#000000;display:inline;overflow:visible;visibility:visible;opacity:1;fill:#334c7e;fill-opacity:1;fill-rule:nonzero;stroke:none;stroke-width:6;stroke-miterlimit:4;stroke-dasharray:none;stroke-opacity:1;marker:none;enable-background:accumulate" />
    <g
       style="display:inline;opacity:1"
       transform="matrix(1.3543183,0,0,1.3501513,-272.22345,-387.0286)"
       id="g6373-3-5-5">
      <g
         id="g3876-2-4-1-0-1-2-4-1-5-5-0-6-4-5-4-2-5-3-1-8-39-1-14-2-3-8-7-9"
         transform="matrix(0.05728407,0,0,0.05728407,320.02966,381.5701)"
         style="display:inline;fill:#acc0e5;fill-opacity:1;stroke:none">
        <path
           inkscape:connector-curvature="0"
           id="rect3793-8-9-7-7-8-9-9-1-1-1-3-9-6-6-4-7-1-3-6-0-4-4-6-7-6-3-5-6"
           d="m -112.65647,910.30762 61.354705,0 0,213.20758 -61.354705,0 z"
           style="color:#000000;display:inline;overflow:visible;visibility:visible;fill:#acc0e5;fill-opacity:1;fill-rule:nonzero;stroke:none;stroke-width:8.89999962;marker:none;enable-background:accumulate"
           transform="matrix(0.70710678,-0.70710678,0.70710678,0.70710678,0,0)" />
        <path
           inkscape:connector-curvature="0"
           id="rect3793-1-9-1-2-0-7-8-0-0-1-9-8-4-1-9-6-9-2-4-6-1-3-14-4-6-4-8-8-3"
           d="m -1047.5887,-188.58292 61.35466,0 0,213.207615 -61.35466,0 z"
           style="color:#000000;display:inline;overflow:visible;visibility:visible;fill:#acc0e5;fill-opacity:1;fill-rule:nonzero;stroke:none;stroke-width:8.89999962;marker:none;enable-background:accumulate"
           transform="matrix(-0.70710678,-0.70710678,0.70710678,-0.70710678,0,0)" />
      </g>
      <g
         id="g5322-7-1-5-3-5-7-2-5-6-5-1-3-2-3-4-1-4-4-4-7-9-0"
         transform="matrix(0.23589175,0,0,0.23589175,144.82036,377.5473)"
         style="display:inline;fill:#acc0e5;fill-opacity:1;stroke:none">
        <path
           id="path3802-9-5-4-2-1-05-8-3-4-0-9-07-7-4-0-66-9-4-2-3-8-8-6-8-2-7-2-8-5-9-6-6"
           d="m 796.87462,181.76541 c -12.2277,0 -22.1563,9.92856 -22.1563,22.15625 0,12.22769 9.9286,22.125 22.1563,22.125 12.2277,0 22.125,-9.89731 22.125,-22.125 0,-12.22769 -9.8973,-22.15625 -22.125,-22.15625 z m 0,15.84375 c 3.4849,0 6.3125,2.82757 6.3125,6.3125 0,3.48493 -2.8276,6.3125 -6.3125,6.3125 -3.4849,0 -6.3125,-2.82757 -6.3125,-6.3125 0,-3.48493 2.8276,-6.3125 6.3125,-6.3125 z"
           style="color:#000000;display:inline;overflow:visible;visibility:visible;fill:#acc0e5;fill-opacity:1;fill-rule:nonzero;stroke:none;stroke-width:8.89999962;marker:none;enable-background:accumulate"
           inkscape:connector-curvature="0" />
        <path
           inkscape:connector-curvature="0"
           id="rect5320-74-5-3-7-9-9-1-7-0-7-7-7-6-8-316-2-74-3-0-4-0-7"
           d="m 412.3298,724.39374 13.18312,0 0,12.35917 -13.18312,0 z"
           style="color:#000000;display:inline;overflow:visible;visibility:visible;fill:#acc0e5;fill-opacity:1;fill-rule:nonzero;stroke:none;stroke-width:12.39999962;marker:none;enable-background:accumulate"
           transform="matrix(0.70710678,-0.70710678,0.70710678,0.70710678,0,0)" />
      </g>
      <g
         id="g10288-48-3-0-9-2-4-5"
         transform="matrix(0.62834826,0,0,0.62834826,-182.10995,566.95219)"
         style="display:inline;fill:#acc0e5;fill-opacity:1">
        <path
           id="rect4381-9-6-7-8-5-3-27-0-9-5-7-7-6-6-1-6-3-4-53-1"
           d="m 832.24055,-227.24462 5.60398,0 0,10.9937 -5.60398,0 z"
           style="color:#000000;display:inline;overflow:visible;visibility:visible;fill:#acc0e5;fill-opacity:1;fill-rule:nonzero;stroke:none;stroke-width:18.03499985;marker:none;enable-background:accumulate"
           inkscape:connector-curvature="0" />
        <circle
           r="3.0462079"
           cy="-232.38202"
           cx="835.04254"
           id="path9061-6-3-9-7-0-7-4-4-6-1-6"
           style="display:inline;fill:#acc0e5;fill-opacity:1;stroke:none;stroke-width:3;stroke-miterlimit:4;stroke-dasharray:none;stroke-opacity:1" />
      </g>
      <g
         transform="matrix(0.62834826,0,0,0.62834826,-176.33845,566.95219)"
         style="display:inline;fill:#acc0e5;fill-opacity:1"
         id="g10288-5-9-9-0-8-17-25-5">
        <path
           id="rect4381-9-6-7-8-5-3-27-0-9-5-7-7-6-1-8-7-7-7-4-5-1"
           d="m 832.24055,-227.24462 5.60398,0 0,10.9937 -5.60398,0 z"
           style="color:#000000;display:inline;overflow:visible;visibility:visible;fill:#acc0e5;fill-opacity:1;fill-rule:nonzero;stroke:none;stroke-width:18.03499985;marker:none;enable-background:accumulate"
           inkscape:connector-curvature="0" />
        <circle
           r="3.0462079"
           cy="-232.38202"
           cx="835.04254"
           id="path9061-6-3-9-7-6-4-1-9-1-87-4-5"
           style="display:inline;fill:#acc0e5;fill-opacity:1;stroke:none;stroke-width:3;stroke-miterlimit:4;stroke-dasharray:none;stroke-opacity:1" />
      </g>
    </g>
    <g
       transform="translate(-450.43329,49.519435)"
       style="display:inline;opacity:1"
       id="g11552">
      <g
         transform="matrix(0.73936986,0,0,0.73936986,2262.3882,-74.554605)"
         id="g10175-5-2">
        <path
           id="path3802-9-5-4-2-1-05-8-3-4-0-9-07-7-4-0-66-9-4-2-3-8-8-6-8-2-7-2-8-5-9-6-1-0-1"
           d="m -2206.428,324.88875 c -3.9064,0 -7.0783,3.16215 -7.0783,7.05654 0,3.89439 3.1719,7.04658 7.0783,7.04658 3.9064,0 7.0684,-3.15219 7.0684,-7.04658 0,-3.89439 -3.162,-7.05654 -7.0684,-7.05654 z m 0,5.04607 c 1.1134,0 2.0167,0.90055 2.0167,2.01047 0,1.10991 -0.9033,2.01046 -2.0167,2.01046 -1.1133,0 -2.0166,-0.90055 -2.0166,-2.01046 0,-1.10992 0.9033,-2.01047 2.0166,-2.01047 z"
           style="color:#000000;display:inline;overflow:visible;visibility:visible;fill:#acc0e5;fill-opacity:1;fill-rule:nonzero;stroke:none;stroke-width:8.89999962;marker:none;enable-background:accumulate"
           inkscape:connector-curvature="0" />
        <path
           inkscape:connector-curvature="0"
           id="rect5320-74-5-3-7-9-9-1-7-0-7-7-7-6-8-316-2-74-3-0-4-0-4-1-8"
           d="m -2213.5192,320.11917 5.0621,0.018 0.013,11.80813 -5.0622,-0.018 z"
           style="color:#000000;display:inline;overflow:visible;visibility:visible;fill:#acc0e5;fill-opacity:1;fill-rule:nonzero;stroke:none;stroke-width:12.39999962;marker:none;enable-background:accumulate" />
      </g>
      <path
         inkscape:connector-curvature="0"
         style="color:#000000;display:inline;overflow:visible;visibility:visible;opacity:1;fill:#acc0e5;fill-opacity:1;fill-rule:nonzero;stroke:none;stroke-width:8.89999962;marker:none;enable-background:accumulate"
         d="m 649.03841,165.65835 c -2.88827,0 -5.23348,2.338 -5.23348,5.21739 0,2.8794 2.34521,5.21003 5.23348,5.21003 2.88828,0 5.22617,-2.33063 5.22617,-5.21003 0,-2.87939 -2.33789,-5.21739 -5.22617,-5.21739 z m 0,3.73091 c 0.82322,0 1.49109,0.66584 1.49109,1.48648 0,0.82064 -0.66787,1.48648 -1.49109,1.48648 -0.82314,0 -1.49101,-0.66584 -1.49101,-1.48648 0,-0.82064 0.66787,-1.48648 1.49101,-1.48648 z"
         id="path3802-9-5-4-2-1-05-8-3-4-0-9-07-7-4-0-66-9-4-2-3-8-8-6-8-2-7-2-8-5-9-6-1-7-3-5" />
      <path
         style="color:#000000;display:inline;overflow:visible;visibility:visible;opacity:1;fill:#acc0e5;fill-opacity:1;fill-rule:nonzero;stroke:none;stroke-width:12.39999962;marker:none;enable-background:accumulate"
         d="m 638.09552,162.1106 3.74276,0.0212 0.01,13.95392 -3.74283,-0.0212 z"
         id="rect5320-74-5-3-7-9-9-1-7-0-7-7-7-6-8-316-2-74-3-0-4-0-4-5-3-6"
         inkscape:connector-curvature="0" />
      <path
         inkscape:connector-curvature="0"
         id="path3802-9-5-4-2-1-05-8-3-4-0-9-07-7-4-0-66-9-4-2-3-8-8-6-8-2-7-2-8-5-9-6-1-2-2-5"
         transform="translate(-68.38765,-43.869516)"
         d="m 729.66797,209.52734 c -2.88828,0 -5.23438,2.33935 -5.23438,5.21875 0,2.8794 2.3461,5.20899 5.23438,5.20899 0.51903,0 1.01908,-0.0786 1.49219,-0.21875 l 0.002,0.73633 3.74219,0.01 -0.01,-5.73633 c 0,-2.8794 -2.33829,-5.21875 -5.22656,-5.21875 z m 5.23633,10.95508 -3.74024,0 c 0,0.83518 -0.63747,1.47266 -1.47265,1.47266 l 0,3.74023 c 2.85643,0 5.21289,-2.35647 5.21289,-5.21289 z m -5.23633,-7.22265 c 0.82056,0 1.48596,0.66152 1.49023,1.47851 l -0.008,0 0,0.0859 c -0.0417,0.78348 -0.68612,1.4082 -1.48242,1.4082 -0.82314,0 -1.49024,-0.66571 -1.49024,-1.48633 0,-0.82063 0.6671,-1.48632 1.49024,-1.48632 z"
         style="color:#000000;display:inline;overflow:visible;visibility:visible;opacity:1;fill:#acc0e5;fill-opacity:1;fill-rule:nonzero;stroke:none;stroke-width:8.89999962;marker:none;enable-background:accumulate" />
    </g>
    <rect
       style="color:#000000;clip-rule:nonzero;display:inline;overflow:visible;visibility:visible;opacity:1;isolation:auto;mix-blend-mode:normal;color-interpolation:sRGB;color-interpolation-filters:linearRGB;solid-color:#000000;solid-opacity:1;fill:#acc0e5;fill-opacity:1;fill-rule:evenodd;stroke:none;stroke-width:3.74000001;stroke-linecap:butt;stroke-linejoin:miter;stroke-miterlimit:4;stroke-dasharray:none;stroke-dashoffset:0;stroke-opacity:1;color-rendering:auto;image-rendering:auto;shape-rendering:auto;text-rendering:auto;enable-background:accumulate"
       id="rect11917-6"
       width="17.734388"
       height="17.734388"
       x="237.94186"
       y="-40.371914"
       transform="matrix(0.70710678,0.70710678,-0.70710678,0.70710678,0,0)" />
    <rect
       style="color:#000000;clip-rule:nonzero;display:inline;overflow:visible;visibility:visible;opacity:1;isolation:auto;mix-blend-mode:normal;color-interpolation:sRGB;color-interpolation-filters:linearRGB;solid-color:#000000;solid-opacity:1;fill:#acc0e5;fill-opacity:1;fill-rule:evenodd;stroke:none;stroke-width:3.74000001;stroke-linecap:butt;stroke-linejoin:miter;stroke-miterlimit:4;stroke-dasharray:none;stroke-dashoffset:0;stroke-opacity:1;color-rendering:auto;image-rendering:auto;shape-rendering:auto;text-rendering:auto;enable-background:accumulate"
       id="rect11917-6-5"
       width="17.734388"
       height="17.734388"
       x="220.20746"
       y="-22.637537"
       transform="matrix(0.70710678,0.70710678,-0.70710678,0.70710678,0,0)" />
    <rect
       style="color:#000000;clip-rule:nonzero;display:inline;overflow:visible;visibility:visible;opacity:1;isolation:auto;mix-blend-mode:normal;color-interpolation:sRGB;color-interpolation-filters:linearRGB;solid-color:#000000;solid-opacity:1;fill:#acc0e5;fill-opacity:1;fill-rule:evenodd;stroke:none;stroke-width:3.74000001;stroke-linecap:butt;stroke-linejoin:miter;stroke-miterlimit:4;stroke-dasharray:none;stroke-dashoffset:0;stroke-opacity:1;color-rendering:auto;image-rendering:auto;shape-rendering:auto;text-rendering:auto;enable-background:accumulate"
       id="rect11917-6-8"
       width="17.734388"
       height="17.734388"
       x="255.67625"
       y="-58.106281"
       transform="matrix(0.70710678,0.70710678,-0.70710678,0.70710678,0,0)" />
  </g>
</svg>
